# xmcd
#
# Track frame offsets:
#	150
#	14905
#	19522
#	21900
#	22794
#	37232
#	41842
#	44217
#	45152
#	60592
#	65205
#	67532
#	68465
#	79022
#	83617
#	85985
#	86912
#	97757
#	102425
#	104827
#	105757
#	114465
#	119110
#	121495
#	122425
#	133310
#	137967
#	140367
#	141317
#	156450
#	161115
#	163520
#	164472
#	179452
#	184105
#	186505
#	187445
#	204002
#	208667
#	211070
#	212000
#	228515
#	233177
#	235582
#	236537
#	252272
#	256920
#	259325
#	260255
#	276405
#	281065
#	283472
#	284445
#	301182
#	305842
#	308232
#	309175
#	324272
#	328937
#	331335
#
# Disc length: 4428 seconds
#
# Revision: 1
# Processed by: cddbd v1.4PL0 Copyright (c) Steve Scherf et al.
# Submitted via: audiograbber 1.80.04
#
DISCID=88114a3c
DTITLE=Blues - Master Source Vol. 4 (disk 10)
DYEAR=1900
DGENRE=
TTITLE0=Let It Ride
TTITLE1=Let It Ride 2
TTITLE2=Let It Ride 3
TTITLE3=Let It Ride 4
TTITLE4=Stranger
TTITLE5=Stranger 2
TTITLE6=Stranger 3
TTITLE7=Stranger 4
TTITLE8=Gimme One More Shot
TTITLE9=Gimme One More Shot 2
TTITLE10=Gimme One More Shot 3
TTITLE11=Gimme One More Shot 4
TTITLE12=Jump, Shake, Rattle 'n Roll
TTITLE13=Jump, Shake, Rattle 'n Roll 2
TTITLE14=Jump, Shake, Rattle 'n Roll 3
TTITLE15=Jump, Shake, Rattle 'n Roll 4
TTITLE16=Boom Boom Boom
TTITLE17=Boom Boom Boom 2
TTITLE18=Boom Boom Boom 3
TTITLE19=Boom Boom Boom 4
TTITLE20=Let's Live It Up
TTITLE21=Let's Live It Up 2
TTITLE22=Let's Live It Up 3
TTITLE23=Let's Live It Up 4
TTITLE24=Gonna Rev It Up
TTITLE25=Gonna Rev It Up 2
TTITLE26=Gonna Rev It Up 3
TTITLE27=Gonna Rev It Up 4
TTITLE28=Rough 'N Ready
TTITLE29=Rough 'N Ready 2
TTITLE30=Rough 'N Ready 3
TTITLE31=Rough 'N Ready 4
TTITLE32=Innocent Man
TTITLE33=Innocent Man 2
TTITLE34=Innocent Man 3
TTITLE35=Innocent Man 4
TTITLE36=The Likes Of Me
TTITLE37=The Likes Of Me 2
TTITLE38=The Likes Of Me 3
TTITLE39=The Likes Of Me 4
TTITLE40=Bad Weather Bad Woman
TTITLE41=Bad Weather Bad Woman 2
TTITLE42=Bad Weather Bad Woman 3
TTITLE43=Bad Weather Bad Woman 4
TTITLE44=Since You Left Me
TTITLE45=Since You Left Me 2
TTITLE46=Since You Left Me 3
TTITLE47=Since You Left Me 4
TTITLE48=My Heart Doesn't Live Here Anymore
TTITLE49=My Heart Doesn't Live Here Anymore 2
TTITLE50=My Heart Doesn't Live Here Anymore 3
TTITLE51=My Heart Doesn't Live Here Anymore 4
TTITLE52=Just Heard The News
TTITLE53=Just Heard The News 2
TTITLE54=Just Heard The News 3
TTITLE55=Just Heard The News 4
TTITLE56=Cryin' Over You
TTITLE57=Cryin' Over You 2
TTITLE58=Cryin' Over You 3
TTITLE59=Cryin' Over You 4
EXTD=
EXTT0=
EXTT1=
EXTT2=
EXTT3=
EXTT4=
EXTT5=
EXTT6=
EXTT7=
EXTT8=
EXTT9=
EXTT10=
EXTT11=
EXTT12=
EXTT13=
EXTT14=
EXTT15=
EXTT16=
EXTT17=
EXTT18=
EXTT19=
EXTT20=
EXTT21=
EXTT22=
EXTT23=
EXTT24=
EXTT25=
EXTT26=
EXTT27=
EXTT28=
EXTT29=
EXTT30=
EXTT31=
EXTT32=
EXTT33=
EXTT34=
EXTT35=
EXTT36=
EXTT37=
EXTT38=
EXTT39=
EXTT40=
EXTT41=
EXTT42=
EXTT43=
EXTT44=
EXTT45=
EXTT46=
EXTT47=
EXTT48=
EXTT49=
EXTT50=
EXTT51=
EXTT52=
EXTT53=
EXTT54=
EXTT55=
EXTT56=
EXTT57=
EXTT58=
EXTT59=
PLAYORDER=
